<svg xmlns="http://www.w3.org/2000/svg" viewBox="0 0 128 128" role="img" aria-label="Forager">
  <defs>
    <linearGradient id="shell" x1="10" y1="6" x2="118" y2="122" gradientUnits="userSpaceOnUse">
      <stop offset="0" stop-color="#182433"/>
      <stop offset="1" stop-color="#0b111a"/>
    </linearGradient>
    <linearGradient id="route" x1="30" y1="94" x2="99" y2="32" gradientUnits="userSpaceOnUse">
      <stop offset="0" stop-color="#38bdf8"/>
      <stop offset="0.5" stop-color="#34d399"/>
      <stop offset="1" stop-color="#f59e0b"/>
    </linearGradient>
  </defs>

  <rect x="5" y="5" width="118" height="118" rx="16" fill="url(#shell)" stroke="#304257" stroke-width="2"/>
  <rect x="5" y="5" width="118" height="24" rx="16" fill="#0d1420"/>
  <path d="M5 21h118v8H5z" fill="#0d1420"/>

  <circle cx="18" cy="17" r="4" fill="#ef4444"/>
  <circle cx="31" cy="17" r="4" fill="#f59e0b"/>
  <circle cx="44" cy="17" r="4" fill="#22c55e"/>

  <path d="M27 87l17-19 18 12 20-25 19-16" fill="none" stroke="#1f2937" stroke-width="15" stroke-linecap="round" stroke-linejoin="round"/>
  <path d="M27 87l17-19 18 12 20-25 19-16" fill="none" stroke="url(#route)" stroke-width="7" stroke-linecap="round" stroke-linejoin="round"/>

  <path d="M34 46h20" stroke="#94a3b8" stroke-width="5" stroke-linecap="round"/>
  <path d="M34 58h13" stroke="#64748b" stroke-width="4" stroke-linecap="round"/>
  <path d="M72 95h24" stroke="#94a3b8" stroke-width="5" stroke-linecap="round"/>

  <circle cx="27" cy="87" r="8" fill="#38bdf8" stroke="#0f172a" stroke-width="3"/>
  <circle cx="44" cy="68" r="7" fill="#34d399" stroke="#0f172a" stroke-width="3"/>
  <circle cx="62" cy="80" r="7" fill="#22c55e" stroke="#0f172a" stroke-width="3"/>
  <circle cx="82" cy="55" r="7" fill="#fbbf24" stroke="#0f172a" stroke-width="3"/>
  <circle cx="101" cy="39" r="8" fill="#f59e0b" stroke="#0f172a" stroke-width="3"/>

  <path d="M88 37c4-10 13-15 25-15-2 12-8 20-20 24" fill="none" stroke="#34d399" stroke-width="5" stroke-linecap="round" stroke-linejoin="round"/>
  <path d="M88 37c8 1 14 4 18 10" fill="none" stroke="#22c55e" stroke-width="4" stroke-linecap="round"/>
</svg>
