<svg xmlns="http://www.w3.org/2000/svg" viewBox="0 0 720 180" role="img" aria-label="Forager local meta-harness logo">
  <defs>
    <linearGradient id="shell" x1="18" y1="18" x2="126" y2="132" gradientUnits="userSpaceOnUse">
      <stop offset="0" stop-color="#102033"/>
      <stop offset="1" stop-color="#020617"/>
    </linearGradient>
    <linearGradient id="trail" x1="39" y1="107" x2="111" y2="53" gradientUnits="userSpaceOnUse">
      <stop offset="0" stop-color="#38bdf8"/>
      <stop offset="0.62" stop-color="#0075ba"/>
      <stop offset="1" stop-color="#da2128"/>
    </linearGradient>
  </defs>

  <rect width="720" height="180" rx="18" fill="#020617"/>

  <g transform="translate(24 24)">
    <rect x="0" y="0" width="132" height="132" rx="20" fill="url(#shell)"/>
    <rect x="0" y="0" width="132" height="132" rx="20" fill="none" stroke="#2f4056" stroke-width="2"/>
    <g opacity="0.16" stroke="#94a3b8" stroke-width="2">
      <path d="M26 32h80"/>
      <path d="M26 100h80"/>
      <path d="M32 26v80"/>
      <path d="M100 26v80"/>
    </g>
    <path d="M28 94l26-30 24 18 28-39" fill="none" stroke="#020617" stroke-width="18" stroke-linecap="round" stroke-linejoin="round"/>
    <path d="M28 94l26-30 24 18 28-39" fill="none" stroke="url(#trail)" stroke-width="9" stroke-linecap="round" stroke-linejoin="round"/>
    <circle cx="28" cy="94" r="10" fill="#38bdf8" stroke="#020617" stroke-width="4"/>
    <circle cx="54" cy="64" r="9" fill="#0075ba" stroke="#020617" stroke-width="4"/>
    <circle cx="78" cy="82" r="9" fill="#0a5f92" stroke="#020617" stroke-width="4"/>
    <circle cx="106" cy="43" r="11" fill="#da2128" stroke="#020617" stroke-width="4"/>
    <path d="M95 43h20M106 32v22" stroke="#fff7ed" stroke-width="4" stroke-linecap="round" opacity="0.92"/>
  </g>

  <text x="184" y="80" fill="#f8fafc" font-family="Inter, ui-sans-serif, system-ui, sans-serif" font-size="56" font-weight="800">Forager</text>
  <text x="188" y="121" fill="#cbd5e1" font-family="Inter, ui-sans-serif, system-ui, sans-serif" font-size="22" font-weight="500">Local meta-harness for harness-backed agents</text>
  <path d="M188 142h360" stroke="#0075ba" stroke-width="3" stroke-linecap="round"/>
  <circle cx="574" cy="142" r="6" fill="#da2128"/>
</svg>
