<svg xmlns="http://www.w3.org/2000/svg" viewBox="0 0 128 128" role="img" aria-label="Forager">
  <defs>
    <linearGradient id="shell" x1="14" y1="10" x2="118" y2="122" gradientUnits="userSpaceOnUse">
      <stop offset="0" stop-color="#102033"/>
      <stop offset="1" stop-color="#020617"/>
    </linearGradient>
    <linearGradient id="trail" x1="27" y1="92" x2="101" y2="34" gradientUnits="userSpaceOnUse">
      <stop offset="0" stop-color="#38bdf8"/>
      <stop offset="0.62" stop-color="#0075ba"/>
      <stop offset="1" stop-color="#da2128"/>
    </linearGradient>
    <filter id="soft-shadow" x="-20%" y="-20%" width="140%" height="140%">
      <feDropShadow dx="0" dy="8" stdDeviation="8" flood-color="#000000" flood-opacity="0.32"/>
    </filter>
  </defs>

  <rect x="7" y="7" width="114" height="114" rx="18" fill="url(#shell)"/>
  <rect x="7" y="7" width="114" height="114" rx="18" fill="none" stroke="#2f4056" stroke-width="2"/>

  <g opacity="0.16" stroke="#94a3b8" stroke-width="2">
    <path d="M28 31h72"/>
    <path d="M28 97h72"/>
    <path d="M31 28v72"/>
    <path d="M97 28v72"/>
  </g>

  <g filter="url(#soft-shadow)">
    <path d="M30 88l23-27 21 16 25-35" fill="none" stroke="#020617" stroke-width="18" stroke-linecap="round" stroke-linejoin="round"/>
    <path d="M30 88l23-27 21 16 25-35" fill="none" stroke="url(#trail)" stroke-width="9" stroke-linecap="round" stroke-linejoin="round"/>

    <circle cx="30" cy="88" r="10" fill="#38bdf8" stroke="#020617" stroke-width="4"/>
    <circle cx="53" cy="61" r="9" fill="#0075ba" stroke="#020617" stroke-width="4"/>
    <circle cx="74" cy="77" r="9" fill="#0a5f92" stroke="#020617" stroke-width="4"/>
    <circle cx="99" cy="42" r="11" fill="#da2128" stroke="#020617" stroke-width="4"/>
  </g>

  <path d="M88 42h20M99 31v22" stroke="#fff7ed" stroke-width="4" stroke-linecap="round" opacity="0.92"/>
</svg>
