<svg xmlns="http://www.w3.org/2000/svg" viewBox="0 0 1280 640" role="img" aria-label="Forager social preview">
  <defs>
    <linearGradient id="bg" x1="0" y1="0" x2="1280" y2="640" gradientUnits="userSpaceOnUse">
      <stop offset="0" stop-color="#020617"/>
      <stop offset="0.58" stop-color="#071426"/>
      <stop offset="1" stop-color="#0a324f"/>
    </linearGradient>
    <linearGradient id="trail" x1="760" y1="430" x2="1080" y2="180" gradientUnits="userSpaceOnUse">
      <stop offset="0" stop-color="#38bdf8"/>
      <stop offset="0.62" stop-color="#0075ba"/>
      <stop offset="1" stop-color="#da2128"/>
    </linearGradient>
    <filter id="shadow" x="-20%" y="-20%" width="140%" height="140%">
      <feDropShadow dx="0" dy="20" stdDeviation="22" flood-color="#000000" flood-opacity="0.42"/>
    </filter>
  </defs>

  <rect width="1280" height="640" fill="url(#bg)"/>
  <g opacity="0.12" stroke="#94a3b8" stroke-width="1">
    <path d="M0 128h1280M0 256h1280M0 384h1280M0 512h1280"/>
    <path d="M160 0v640M320 0v640M480 0v640M640 0v640M800 0v640M960 0v640M1120 0v640"/>
  </g>

  <g transform="translate(760 128)" filter="url(#shadow)">
    <rect x="0" y="0" width="360" height="360" rx="42" fill="#020617"/>
    <rect x="0" y="0" width="360" height="360" rx="42" fill="none" stroke="#2f4056" stroke-width="4"/>
    <g opacity="0.18" stroke="#94a3b8" stroke-width="4">
      <path d="M74 86h212"/>
      <path d="M74 274h212"/>
      <path d="M86 74v212"/>
      <path d="M274 74v212"/>
    </g>
    <path d="M78 254l72-86 66 50 82-116" fill="none" stroke="#020617" stroke-width="56" stroke-linecap="round" stroke-linejoin="round"/>
    <path d="M78 254l72-86 66 50 82-116" fill="none" stroke="url(#trail)" stroke-width="27" stroke-linecap="round" stroke-linejoin="round"/>
    <circle cx="78" cy="254" r="29" fill="#38bdf8" stroke="#020617" stroke-width="12"/>
    <circle cx="150" cy="168" r="26" fill="#0075ba" stroke="#020617" stroke-width="11"/>
    <circle cx="216" cy="218" r="26" fill="#0a5f92" stroke="#020617" stroke-width="11"/>
    <circle cx="298" cy="102" r="32" fill="#da2128" stroke="#020617" stroke-width="12"/>
    <path d="M266 102h64M298 70v70" stroke="#fff7ed" stroke-width="12" stroke-linecap="round"/>
  </g>

  <g transform="translate(96 120)">
    <text x="0" y="0" fill="#7dd3fc" font-family="Inter, ui-sans-serif, system-ui, sans-serif" font-size="24" font-weight="700" letter-spacing="5">FORAGER</text>
    <text x="0" y="102" fill="#f8fafc" font-family="Inter, ui-sans-serif, system-ui, sans-serif" font-size="72" font-weight="800">Entrust agent work.</text>
    <text x="0" y="182" fill="#f8fafc" font-family="Inter, ui-sans-serif, system-ui, sans-serif" font-size="72" font-weight="800">Return to evidence.</text>
    <text x="0" y="252" fill="#cbd5e1" font-family="Inter, ui-sans-serif, system-ui, sans-serif" font-size="31" font-weight="500">Local meta-harness for harness-backed agents.</text>
  </g>

  <g transform="translate(98 520)">
    <circle cx="0" cy="0" r="7" fill="#38bdf8"/>
    <text x="22" y="9" fill="#cbd5e1" font-family="Inter, ui-sans-serif, system-ui, sans-serif" font-size="24">approval</text>
    <circle cx="156" cy="0" r="7" fill="#0075ba"/>
    <text x="178" y="9" fill="#cbd5e1" font-family="Inter, ui-sans-serif, system-ui, sans-serif" font-size="24">evidence</text>
    <circle cx="320" cy="0" r="7" fill="#da2128"/>
    <text x="342" y="9" fill="#cbd5e1" font-family="Inter, ui-sans-serif, system-ui, sans-serif" font-size="24">review</text>
  </g>
</svg>
