<svg xmlns="http://www.w3.org/2000/svg" viewBox="0 0 1280 640" role="img" aria-label="Forager social preview">
  <defs>
    <linearGradient id="bg" x1="0" y1="0" x2="1280" y2="640" gradientUnits="userSpaceOnUse">
      <stop offset="0" stop-color="#08111f"/>
      <stop offset="0.58" stop-color="#111827"/>
      <stop offset="1" stop-color="#182433"/>
    </linearGradient>
    <linearGradient id="route" x1="720" y1="410" x2="1060" y2="160" gradientUnits="userSpaceOnUse">
      <stop offset="0" stop-color="#38bdf8"/>
      <stop offset="0.5" stop-color="#34d399"/>
      <stop offset="1" stop-color="#f59e0b"/>
    </linearGradient>
  </defs>

  <rect width="1280" height="640" fill="url(#bg)"/>
  <g opacity="0.08" stroke="#f8fafc">
    <path d="M0 120h1280M0 240h1280M0 360h1280M0 480h1280"/>
    <path d="M160 0v640M320 0v640M480 0v640M640 0v640M800 0v640M960 0v640M1120 0v640"/>
  </g>

  <g transform="translate(96 116)">
    <rect x="0" y="0" width="420" height="310" rx="18" fill="#101827" stroke="#2f4056" stroke-width="2"/>
    <rect x="0" y="0" width="420" height="42" rx="18" fill="#0b1220"/>
    <path d="M0 24h420v18H0z" fill="#0b1220"/>
    <circle cx="27" cy="22" r="7" fill="#ef4444"/>
    <circle cx="51" cy="22" r="7" fill="#f59e0b"/>
    <circle cx="75" cy="22" r="7" fill="#22c55e"/>
    <text x="30" y="94" fill="#34d399" font-family="ui-monospace, SFMono-Regular, Menlo, monospace" font-size="26" font-weight="700">Forager [default]</text>
    <text x="30" y="140" fill="#cbd5e1" font-family="ui-monospace, SFMono-Regular, Menlo, monospace" font-size="22">runtime-smoke</text>
    <text x="30" y="180" fill="#fbbf24" font-family="ui-monospace, SFMono-Regular, Menlo, monospace" font-size="22">waiting: approval</text>
    <text x="30" y="220" fill="#94a3b8" font-family="ui-monospace, SFMono-Regular, Menlo, monospace" font-size="22">wiki-review</text>
    <text x="30" y="260" fill="#38bdf8" font-family="ui-monospace, SFMono-Regular, Menlo, monospace" font-size="22">offdesk queue healthy</text>
  </g>

  <g transform="translate(655 118)">
    <rect x="0" y="0" width="450" height="330" rx="28" fill="#0f172a" stroke="#334155" stroke-width="3"/>
    <path d="M70 250l74-86 78 52 88-112 82-70" fill="none" stroke="#1f2937" stroke-width="34" stroke-linecap="round" stroke-linejoin="round"/>
    <path d="M70 250l74-86 78 52 88-112 82-70" fill="none" stroke="url(#route)" stroke-width="15" stroke-linecap="round" stroke-linejoin="round"/>
    <circle cx="70" cy="250" r="20" fill="#38bdf8" stroke="#0b1120" stroke-width="7"/>
    <circle cx="144" cy="164" r="18" fill="#34d399" stroke="#0b1120" stroke-width="7"/>
    <circle cx="222" cy="216" r="18" fill="#22c55e" stroke="#0b1120" stroke-width="7"/>
    <circle cx="310" cy="104" r="18" fill="#fbbf24" stroke="#0b1120" stroke-width="7"/>
    <circle cx="392" cy="34" r="21" fill="#f59e0b" stroke="#0b1120" stroke-width="7"/>
    <path d="M342 44c20-43 61-63 112-63-8 53-37 88-89 104" fill="none" stroke="#34d399" stroke-width="14" stroke-linecap="round" stroke-linejoin="round"/>
  </g>

  <text x="96" y="488" fill="#f8fafc" font-family="Inter, ui-sans-serif, system-ui, sans-serif" font-size="74" font-weight="800">Forager</text>
  <text x="100" y="568" fill="#cbd5e1" font-family="Inter, ui-sans-serif, system-ui, sans-serif" font-size="29">Offdesk agent orchestration with approvals, recovery, and audit trails</text>
</svg>
